<?xml version="1.0" standalone="no"?>
<!DOCTYPE svg PUBLIC "-//W3C//DTD SVG 20010904//EN"
 "http://www.w3.org/TR/2001/REC-SVG-20010904/DTD/svg10.dtd">
<svg version="1.0" xmlns="http://www.w3.org/2000/svg"
 width="1426.000000pt" height="1426.000000pt" viewBox="0 0 1426.000000 1426.000000"
 preserveAspectRatio="xMidYMid meet">
<metadata>
Created by potrace 1.11, written by Peter Selinger 2001-2013
</metadata>
<g transform="translate(0.000000,1426.000000) scale(0.100000,-0.100000)"
fill="#000000" stroke="none">
<path d="M6987 14254 c-1 -1 -81 -5 -177 -8 -96 -4 -191 -8 -210 -11 -19 -2
-71 -6 -115 -10 -44 -3 -91 -8 -105 -10 -14 -2 -52 -6 -85 -10 -33 -3 -73 -8
-90 -10 -16 -3 -48 -7 -70 -10 -22 -3 -67 -10 -100 -15 -33 -5 -78 -12 -100
-15 -86 -13 -348 -68 -505 -106 -402 -98 -874 -260 -1198 -410 -46 -22 -86
-39 -88 -39 -7 0 -337 -166 -411 -206 -67 -37 -212 -121 -265 -153 -14 -9 -48
-29 -75 -45 -166 -100 -573 -386 -708 -498 -145 -120 -257 -216 -335 -286
-173 -156 -507 -499 -616 -632 -16 -19 -31 -37 -34 -40 -13 -12 -111 -132
-160 -195 -30 -38 -60 -77 -67 -85 -156 -195 -417 -593 -577 -880 -55 -99
-226 -442 -279 -560 -145 -324 -286 -727 -376 -1071 -29 -113 -101 -426 -106
-464 -1 -11 -8 -49 -15 -85 -7 -36 -14 -75 -15 -87 -4 -26 -15 -97 -21 -128
-2 -11 -6 -42 -9 -70 -3 -27 -7 -61 -10 -75 -2 -14 -6 -50 -10 -80 -3 -30 -8
-71 -10 -90 -8 -68 -14 -141 -31 -390 -12 -192 -6 -670 11 -860 3 -30 7 -84
10 -120 7 -101 27 -274 40 -360 2 -14 7 -45 10 -70 9 -66 15 -103 20 -120 2
-8 7 -35 10 -60 16 -116 112 -547 146 -655 16 -52 50 -169 54 -185 22 -95 180
-528 254 -700 23 -52 47 -108 54 -125 14 -35 240 -489 261 -525 8 -14 54 -92
102 -175 223 -384 544 -823 842 -1155 83 -92 425 -437 507 -510 51 -47 160
-140 254 -220 30 -25 110 -89 180 -143 69 -54 134 -104 144 -112 9 -8 20 -15
24 -15 4 0 16 -9 27 -19 33 -30 380 -261 491 -326 232 -136 292 -169 515 -280
102 -51 235 -114 295 -140 61 -26 128 -55 150 -65 123 -54 428 -163 625 -224
94 -29 425 -118 489 -131 9 -2 39 -9 66 -15 28 -6 95 -20 150 -30 55 -11 109
-21 120 -23 11 -3 40 -8 65 -12 25 -3 59 -9 75 -11 58 -9 90 -14 115 -19 14
-2 45 -6 70 -9 25 -3 68 -8 95 -12 445 -55 1040 -63 1505 -19 41 4 92 8 112
10 44 5 334 43 363 49 11 2 40 7 65 11 138 23 380 74 570 120 169 41 639 189
715 224 11 5 47 19 80 31 310 111 795 351 1165 578 344 211 771 529 1035 771
149 138 416 402 475 471 12 14 38 43 59 65 20 22 77 87 126 145 50 58 92 107
96 110 3 3 18 23 34 45 17 22 32 42 36 45 6 5 151 196 184 242 58 82 245 357
245 361 0 3 17 32 39 64 120 182 367 651 470 893 29 69 62 144 72 167 11 23
19 45 19 48 0 4 6 21 14 38 38 83 153 416 203 587 28 95 118 449 127 495 3 17
10 50 15 75 5 25 17 83 25 130 9 47 18 99 21 115 3 17 8 46 10 65 3 19 7 46
10 60 12 62 37 268 50 420 4 41 9 91 11 110 23 222 23 787 0 1095 -4 54 -19
219 -21 225 -1 3 -5 41 -9 85 -5 44 -10 89 -12 100 -2 10 -6 37 -9 60 -15 101
-30 194 -50 295 -8 41 -17 90 -20 108 -3 18 -21 101 -41 185 -19 84 -37 159
-39 167 -14 65 -105 370 -146 493 -149 442 -317 818 -566 1266 -219 392 -578
887 -898 1240 -110 121 -330 344 -460 466 -298 279 -723 601 -1110 840 -207
127 -568 320 -765 408 -30 13 -75 33 -100 44 -224 101 -525 211 -850 311 -73
23 -448 117 -495 125 -16 3 -50 10 -75 16 -25 5 -61 12 -80 16 -19 3 -57 10
-85 15 -67 14 -82 16 -138 24 -27 4 -58 9 -69 11 -11 3 -46 7 -77 11 -31 3
-64 8 -75 10 -10 2 -44 6 -75 9 -31 3 -72 8 -91 10 -100 12 -250 23 -410 31
-115 5 -479 11 -483 8z"/>
</g>
</svg>
