<?xml version="1.0" standalone="no"?>
<!DOCTYPE svg PUBLIC "-//W3C//DTD SVG 20010904//EN"
 "http://www.w3.org/TR/2001/REC-SVG-20010904/DTD/svg10.dtd">
<svg version="1.0" xmlns="http://www.w3.org/2000/svg"
 width="2322.000000pt" height="2322.000000pt" viewBox="0 0 2322.000000 2322.000000"
 preserveAspectRatio="xMidYMid meet">
<metadata>
Created by potrace 1.11, written by Peter Selinger 2001-2013
</metadata>
<g transform="translate(0.000000,2322.000000) scale(0.100000,-0.100000)"
fill="#000000" stroke="none">
<path d="M11220 23204 c-745 -35 -1259 -95 -1885 -219 -2955 -586 -5572 -2312
-7292 -4810 -1075 -1561 -1759 -3393 -1962 -5255 -57 -524 -66 -700 -66 -1320
0 -636 15 -896 81 -1430 343 -2791 1703 -5370 3825 -7252 395 -350 809 -667
1274 -977 1600 -1065 3433 -1712 5345 -1885 398 -36 513 -41 1070 -41 602 0
780 9 1265 61 1758 189 3468 790 4960 1743 1528 975 2799 2283 3730 3836 1417
2363 1940 5155 1480 7895 -439 2614 -1785 5024 -3785 6777 -730 640 -1523
1178 -2385 1619 -1398 715 -2907 1130 -4515 1239 -209 14 -969 27 -1140 19z
m6212 -6498 c93 -18 184 -55 262 -106 92 -60 1212 -1186 1258 -1265 82 -139
119 -310 98 -461 -14 -107 -57 -228 -110 -308 -61 -93 -8535 -8560 -8612
-8605 -239 -138 -556 -130 -774 20 -79 54 -4872 4845 -4926 4923 -90 131 -128
253 -128 417 0 131 24 230 82 343 40 77 70 108 623 664 637 641 654 655 823
713 88 29 108 33 217 33 179 0 315 -44 450 -147 33 -25 780 -766 1660 -1646
l1600 -1601 3455 3454 3455 3454 105 51 c162 77 302 98 462 67z"/>
</g>
</svg>
