<svg id="Layer_1" data-name="Layer 1" xmlns="http://www.w3.org/2000/svg" xmlns:xlink="http://www.w3.org/1999/xlink" viewBox="0 0 150 150.56"><defs><style>.cls-1{fill:url(#linear-gradient);}</style><linearGradient id="linear-gradient" x1="608.06" y1="383.68" x2="758.06" y2="383.68" gradientUnits="userSpaceOnUse"><stop offset="0" stop-color="#2f80ed"/><stop offset="1" stop-color="#56ccf2"/></linearGradient></defs><title>check-blue</title><path class="cls-1" d="M752.45,353.39A69.93,69.93,0,0,0,713.18,314a83.69,83.69,0,0,0-60.25,0,69.93,69.93,0,0,0-39.27,39.38,84.72,84.72,0,0,0,0,60.58,69.93,69.93,0,0,0,39.27,39.38,83.69,83.69,0,0,0,60.25,0A69.93,69.93,0,0,0,752.45,414a84.58,84.58,0,0,0,0-60.58Zm-27.68,11.66-49.42,49.42a4.3,4.3,0,0,1-6.08,0l-27.93-27.94a4.29,4.29,0,0,1,0-6.07l6.07-6.08a4.3,4.3,0,0,1,6.08,0l18.82,18.82,40.31-40.31a4.3,4.3,0,0,1,6.08,0l6.07,6.08A4.3,4.3,0,0,1,724.77,365.05Z" transform="translate(-608.06 -308.4)"/></svg>