<svg id="Layer_1" data-name="Layer 1" xmlns="http://www.w3.org/2000/svg" xmlns:xlink="http://www.w3.org/1999/xlink" viewBox="0 0 150 150.56"><defs><style>.cls-1{fill:url(#linear-gradient);}</style><linearGradient id="linear-gradient" x1="525" y1="386.48" x2="675" y2="386.48" gradientUnits="userSpaceOnUse"><stop offset="0" stop-color="#e91e63"/><stop offset="1" stop-color="#bc4e9c"/></linearGradient></defs><title>check-pink</title><path class="cls-1" d="M669.39,356.19a69.87,69.87,0,0,0-39.26-39.38,83.72,83.72,0,0,0-60.26,0,69.87,69.87,0,0,0-39.26,39.38,84.58,84.58,0,0,0,0,60.58,70,70,0,0,0,39.26,39.38,83.72,83.72,0,0,0,60.26,0,70,70,0,0,0,39.26-39.38,84.58,84.58,0,0,0,0-60.58Zm-27.67,11.65-49.43,49.43a4.29,4.29,0,0,1-6.07,0l-27.94-27.94a4.3,4.3,0,0,1,0-6.08l6.08-6.07a4.3,4.3,0,0,1,6.08,0L589.26,396l40.3-40.31a4.3,4.3,0,0,1,6.08,0l6.08,6.08A4.29,4.29,0,0,1,641.72,367.84Z" transform="translate(-525 -311.2)"/></svg>