<svg id="Layer_1" data-name="Layer 1" xmlns="http://www.w3.org/2000/svg" viewBox="0 0 246.74 53.02"><defs><style>.cls-1{fill:#fff;}</style></defs><title>logo-white</title><path class="cls-1" d="M574.13,409V366.66h-14.4v-9.21h38.52v9.21h-14.4V409Z" transform="translate(-559.73 -357.45)"/><path class="cls-1" d="M615,372.57a19.76,19.76,0,0,1,7.53,1.4,17.48,17.48,0,0,1,9.79,9.83,21.11,21.11,0,0,1,0,15.12,17.48,17.48,0,0,1-9.79,9.83,20.92,20.92,0,0,1-15.05,0,17.4,17.4,0,0,1-9.79-9.83,21,21,0,0,1,0-15.12,17.4,17.4,0,0,1,9.79-9.83A19.74,19.74,0,0,1,615,372.57Zm0,28.87a9.31,9.31,0,0,0,3.49-.68,9,9,0,0,0,3-2,9.28,9.28,0,0,0,2.05-3.17,12.26,12.26,0,0,0,0-8.5,9.28,9.28,0,0,0-2.05-3.17,9,9,0,0,0-3-2,9.12,9.12,0,0,0-10,2,9.43,9.43,0,0,0-2.05,3.17,12.26,12.26,0,0,0,0,8.5,9.43,9.43,0,0,0,2.05,3.17,9,9,0,0,0,6.48,2.66Z" transform="translate(-559.73 -357.45)"/><path class="cls-1" d="M640.87,357.45H658.3a30.6,30.6,0,0,1,11,1.87,23.7,23.7,0,0,1,8.35,5.29,23.08,23.08,0,0,1,5.3,8.17,30.92,30.92,0,0,1,0,21,22.66,22.66,0,0,1-5.3,8.13,23.91,23.91,0,0,1-8.35,5.26,30.6,30.6,0,0,1-11,1.87H640.87Zm17,42.33a21.73,21.73,0,0,0,7.49-1.18,14.74,14.74,0,0,0,5.4-3.35A13.73,13.73,0,0,0,674,390a22,22,0,0,0,0-13.61,13.73,13.73,0,0,0-3.24-5.22,14.6,14.6,0,0,0-5.4-3.35,21.72,21.72,0,0,0-7.49-1.19h-7.27v33.12Z" transform="translate(-559.73 -357.45)"/><path class="cls-1" d="M740,378.33h.57a11.83,11.83,0,0,1,4.47-4.21,12.93,12.93,0,0,1,6.4-1.55,14.68,14.68,0,0,1,5.83,1.08,10.79,10.79,0,0,1,4.15,3.06,13.44,13.44,0,0,1,2.44,4.75,21.55,21.55,0,0,1,.83,6.16V409h-9.43V388.77c0-2.55-.57-4.43-1.69-5.65a6.38,6.38,0,0,0-4.94-1.84,6.93,6.93,0,0,0-3.42.83,8,8,0,0,0-2.52,2.23,10.26,10.26,0,0,0-1.58,3.31,14.88,14.88,0,0,0-.54,4.07V409h-9.43V373.72H740Z" transform="translate(-559.73 -357.45)"/><path class="cls-1" d="M805.89,400.5a19.78,19.78,0,0,1-6.58,7,18.38,18.38,0,0,1-10.12,2.66,19.53,19.53,0,0,1-7.45-1.4,17.85,17.85,0,0,1-9.87-9.87,19.71,19.71,0,0,1-1.4-7.52,19.38,19.38,0,0,1,1.37-7.24,18.24,18.24,0,0,1,9.61-10,17.68,17.68,0,0,1,7.38-1.51,19.34,19.34,0,0,1,7.56,1.4,15.33,15.33,0,0,1,5.54,3.89,16.75,16.75,0,0,1,3.39,5.87,22.55,22.55,0,0,1,1.15,7.34v.87a4.53,4.53,0,0,0-.07.79,3.87,3.87,0,0,0-.07.79H779.76a9.88,9.88,0,0,0,1.19,3.71,9,9,0,0,0,2.23,2.59,8.61,8.61,0,0,0,2.91,1.51,11.49,11.49,0,0,0,3.24.47,9.17,9.17,0,0,0,5.37-1.48,10.89,10.89,0,0,0,3.35-3.7Zm-8.56-13.68a6.12,6.12,0,0,0-.62-2.08,7.21,7.21,0,0,0-1.58-2.16,8.18,8.18,0,0,0-2.59-1.66,9.62,9.62,0,0,0-3.71-.65A8.66,8.66,0,0,0,783.5,382a9.19,9.19,0,0,0-3.24,4.82Z" transform="translate(-559.73 -357.45)"/><path class="cls-1" d="M723.38,384.12a17.54,17.54,0,0,0-9.8-9.83,20.9,20.9,0,0,0-15,0,17.51,17.51,0,0,0-9.81,9.83,21.25,21.25,0,0,0,0,15.12,17.51,17.51,0,0,0,9.81,9.83,20.9,20.9,0,0,0,15,0,17.54,17.54,0,0,0,9.8-9.83,21.11,21.11,0,0,0,0-15.12ZM716.47,387l-12.34,12.34a1.09,1.09,0,0,1-1.52,0l-7-7a1.06,1.06,0,0,1,0-1.51l1.52-1.52a1.07,1.07,0,0,1,1.52,0l4.69,4.7L713.43,384a1.09,1.09,0,0,1,1.52,0l1.52,1.52A1.07,1.07,0,0,1,716.47,387Z" transform="translate(-559.73 -357.45)"/></svg>